<?xml version="1.0" standalone="no"?>
<!DOCTYPE svg PUBLIC "-//W3C//DTD SVG 20010904//EN"
 "http://www.w3.org/TR/2001/REC-SVG-20010904/DTD/svg10.dtd">
<svg version="1.0" xmlns="http://www.w3.org/2000/svg"
 width="300.000000pt" height="300.000000pt" viewBox="0 0 300.000000 300.000000"
 preserveAspectRatio="xMidYMid meet">
<metadata>
Created by potrace 1.14, written by Peter Selinger 2001-2017
</metadata>
<g transform="translate(0.000000,300.000000) scale(0.100000,-0.100000)"
fill="#000000" stroke="none">
<path d="M0 1500 l0 -1500 1500 0 1500 0 0 1500 0 1500 -1500 0 -1500 0 0
-1500z m2245 554 c22 -11 54 -40 70 -63 l30 -43 0 -453 0 -453 -30 -43 c-16
-23 -48 -52 -70 -63 -39 -21 -50 -21 -725 -21 -675 0 -686 0 -725 21 -22 11
-53 40 -70 63 l-30 43 -3 439 c-2 415 -2 442 17 483 22 51 72 92 127 105 23 5
317 9 704 8 653 -2 666 -2 705 -23z"/>
<path d="M810 2028 c-30 -15 -53 -37 -67 -63 -22 -40 -23 -43 -23 -470 0 -427
1 -430 23 -470 14 -26 37 -48 67 -63 l44 -22 666 0 666 0 44 23 c33 16 51 34
68 67 22 44 22 49 22 465 0 416 0 421 -22 465 -17 33 -35 51 -68 68 l-44 22
-666 0 -666 0 -44 -22z m1030 -303 c26 -32 -13 -81 -47 -59 -35 22 -23 74 17
74 10 0 23 -7 30 -15z m164 -1 c9 -8 16 -19 16 -24 0 -13 -30 -40 -43 -40 -33
1 -53 42 -31 65 20 19 38 19 58 -1z m166 1 c26 -32 -13 -81 -47 -59 -35 22
-23 74 17 74 10 0 23 -7 30 -15z m-520 -25 c0 -7 -145 -10 -415 -10 -270 0
-415 3 -415 10 0 7 145 10 415 10 270 0 415 -3 415 -10z m-769 -186 c19 -23
-1 -49 -37 -49 -30 0 -42 20 -30 51 7 19 50 18 67 -2z m164 -19 c0 -25 -4 -31
-26 -33 -35 -4 -54 20 -39 48 8 15 19 20 38 18 23 -2 27 -8 27 -33z m166 19
c19 -23 -1 -49 -37 -49 -30 0 -42 20 -30 51 7 19 50 18 67 -2z m669 -69 c0
-10 -11 -15 -35 -15 l-35 0 0 -150 0 -150 36 0 c54 0 37 -24 -19 -28 l-47 -3
0 180 0 181 50 0 c38 0 50 -4 50 -15z m198 -162 l-3 -178 -47 -3 c-38 -2 -48
0 -48 12 0 12 10 16 35 16 l35 0 0 150 0 150 -35 0 c-24 0 -35 5 -35 15 0 11
12 15 50 15 l50 0 -2 -177z"/>
<path d="M1800 1700 c0 -5 5 -10 10 -10 6 0 10 5 10 10 0 6 -4 10 -10 10 -5 0
-10 -4 -10 -10z"/>
<path d="M2130 1700 c0 -5 5 -10 10 -10 6 0 10 5 10 10 0 6 -4 10 -10 10 -5 0
-10 -4 -10 -10z"/>
</g>
</svg>
